# xmcd
#
# Track frame offsets:
#	150
#	16883
#	31549
#	43836
#	60421
#	77293
#	89974
#	107097
#	120606
#	132889
#	158322
#	175080
#	191845
#	207392
#	219753
#	235996
#	248349
#	273172
#	289263
#	304391
#
# Disc length: 4280 seconds
#
# Revision: 1
# Processed by: cddbd v1.5.2PL0 Copyright (c) Steve Scherf et al.
# Submitted via: EZCDAudioConverter 1.0.6.1
#
DISCID=0610b614
DTITLE=Motordude Zydeco - Big Oakland
DYEAR=1900
DGENRE=Zydeco
TTITLE0=Big Oakland
TTITLE1=I Done Got Over It
TTITLE2=Can't Do It By Myself
TTITLE3=Josephine
TTITLE4=Motehrs Day
TTITLE5=Gran Boutée Two Step
TTITLE6=I Am A Farmer
TTITLE7=Charlie St. Mary Two Step
TTITLE8=Rice And Gravy
TTITLE9=Mardi Gras In New Orleans
TTITLE10=Mon Couer Fait Mal
TTITLE11=I Ain't Never
TTITLE12=Go Back
TTITLE13=Zydeco Conteau
TTITLE14=Oh By Mon Neg
TTITLE15=Tu Connait
TTITLE16=I Can't Forget You
TTITLE17=Sun Is Going Down
TTITLE18=Je Ne Apprecie Pa CA
TTITLE19=O Yeah
EXTD=
EXTT0=
EXTT1=
EXTT2=
EXTT3=
EXTT4=
EXTT5=
EXTT6=
EXTT7=
EXTT8=
EXTT9=
EXTT10=
EXTT11=
EXTT12=
EXTT13=
EXTT14=
EXTT15=
EXTT16=
EXTT17=
EXTT18=
EXTT19=
PLAYORDER=
